<svg xmlns="http://www.w3.org/2000/svg" xmlns:xlink="http://www.w3.org/1999/xlink" width="500" zoomAndPan="magnify" viewBox="0 0 375 374.999991" height="500" preserveAspectRatio="xMidYMid meet" version="1.0"><defs><g/><clipPath id="525c71de73"><path d="M 137.503906 68.414062 L 220.753906 68.414062 L 220.753906 218.414062 L 137.503906 218.414062 Z M 137.503906 68.414062 " clip-rule="nonzero"/></clipPath><clipPath id="79fc0d6927"><path d="M 137.789062 68.410156 L 178.289062 68.410156 L 178.289062 218.410156 L 137.789062 218.410156 Z M 137.789062 68.410156 " clip-rule="nonzero"/></clipPath></defs><g clip-path="url(#525c71de73)"><path fill="#3ec48d" d="M 158.109375 82.558594 C 156.570312 83.738281 154.367188 83.441406 153.191406 81.902344 C 152.015625 80.363281 152.308594 78.164062 153.847656 76.984375 C 157.414062 74.25 161.4375 72.078125 165.785156 70.601562 C 169.988281 69.179688 174.484375 68.402344 179.144531 68.402344 C 190.628906 68.402344 201.027344 73.058594 208.554688 80.585938 C 216.082031 88.113281 220.738281 98.511719 220.738281 109.996094 C 220.738281 118.847656 217.957031 127.070312 213.21875 133.828125 C 208.824219 140.101562 202.746094 145.101562 195.644531 148.175781 L 195.644531 206.871094 C 195.644531 207.859375 195.238281 208.75 194.585938 209.390625 L 186.621094 217.355469 C 185.933594 218.042969 185.035156 218.382812 184.132812 218.382812 L 153.371094 218.382812 C 151.433594 218.382812 149.855469 216.808594 149.855469 214.867188 L 149.855469 201.972656 C 149.855469 200.808594 150.417969 199.78125 151.285156 199.140625 L 162.640625 189.308594 L 162.640625 181.816406 L 151.089844 171.925781 C 149.621094 170.667969 149.445312 168.453125 150.707031 166.980469 C 150.835938 166.828125 150.976562 166.691406 151.128906 166.5625 L 162.644531 156.707031 L 162.644531 148.164062 C 155.542969 145.089844 149.464844 140.089844 145.070312 133.816406 C 140.332031 127.054688 137.554688 118.832031 137.554688 109.980469 C 137.554688 108.042969 139.128906 106.464844 141.070312 106.464844 C 143.007812 106.464844 144.585938 108.042969 144.585938 109.980469 C 144.585938 117.367188 146.886719 124.207031 150.8125 129.804688 C 154.804688 135.5 160.480469 139.941406 167.117188 142.402344 C 168.597656 142.824219 169.675781 144.179688 169.675781 145.785156 L 169.675781 158.308594 L 169.667969 158.308594 C 169.667969 159.296875 169.25 160.28125 168.441406 160.976562 L 158.761719 169.257812 L 168.242188 177.371094 C 169.109375 178.011719 169.671875 179.039062 169.671875 180.203125 L 169.671875 190.890625 L 169.664062 190.890625 C 169.664062 191.871094 169.253906 192.851562 168.453125 193.539062 L 156.886719 203.558594 L 156.886719 211.34375 L 182.675781 211.34375 L 188.621094 205.402344 L 188.621094 145.785156 L 188.628906 145.785156 C 188.628906 144.351562 189.515625 143.011719 190.941406 142.492188 C 197.683594 140.046875 203.445312 135.570312 207.484375 129.804688 C 211.410156 124.199219 213.710938 117.367188 213.710938 109.980469 C 213.710938 100.4375 209.839844 91.796875 203.585938 85.539062 C 197.332031 79.285156 188.691406 75.414062 179.144531 75.414062 C 175.242188 75.414062 171.511719 76.054688 168.035156 77.230469 C 164.421875 78.457031 161.074219 80.261719 158.109375 82.542969 Z M 199.75 110 C 199.75 115.691406 197.441406 120.839844 193.714844 124.574219 C 189.988281 128.300781 184.832031 130.605469 179.144531 130.605469 C 173.453125 130.605469 168.300781 128.300781 164.570312 124.574219 C 160.84375 120.847656 158.535156 115.691406 158.535156 110 C 158.535156 104.3125 160.84375 99.160156 164.570312 95.429688 C 168.300781 91.699219 173.453125 89.394531 179.144531 89.394531 C 184.832031 89.394531 189.984375 91.699219 193.714844 95.429688 C 197.441406 99.160156 199.75 104.3125 199.75 110 Z M 188.742188 119.601562 C 191.199219 117.140625 192.71875 113.75 192.71875 110 C 192.71875 106.25 191.199219 102.855469 188.742188 100.402344 C 186.285156 97.941406 182.894531 96.425781 179.144531 96.425781 C 175.394531 96.425781 171.996094 97.945312 169.542969 100.402344 C 167.085938 102.855469 165.566406 106.25 165.566406 110 C 165.566406 113.75 167.089844 117.148438 169.542969 119.601562 C 171.996094 122.054688 175.394531 123.574219 179.144531 123.574219 C 182.894531 123.574219 186.289062 122.054688 188.742188 119.601562 Z M 188.742188 119.601562 " fill-opacity="1" fill-rule="nonzero"/></g><g fill="#2a74da" fill-opacity="1"><g transform="translate(117.691968, 249.306252)"><g><path d="M 5.125 -2.90625 L 10.046875 -2.90625 L 10.046875 0 L 1.359375 0 L 1.359375 -15.4375 L 5.125 -15.4375 Z M 5.125 -2.90625 "/></g></g></g><g fill="#2a74da" fill-opacity="1"><g transform="translate(128.184094, 249.306252)"><g><path d="M 6.953125 0.171875 C 5.742188 0.171875 4.660156 -0.0820312 3.703125 -0.59375 C 2.742188 -1.101562 1.988281 -1.832031 1.4375 -2.78125 C 0.882812 -3.738281 0.609375 -4.859375 0.609375 -6.140625 C 0.609375 -7.398438 0.882812 -8.507812 1.4375 -9.46875 C 2 -10.425781 2.765625 -11.160156 3.734375 -11.671875 C 4.703125 -12.191406 5.789062 -12.453125 7 -12.453125 C 8.195312 -12.453125 9.28125 -12.191406 10.25 -11.671875 C 11.21875 -11.160156 11.976562 -10.425781 12.53125 -9.46875 C 13.09375 -8.507812 13.375 -7.398438 13.375 -6.140625 C 13.375 -4.878906 13.09375 -3.765625 12.53125 -2.796875 C 11.96875 -1.835938 11.195312 -1.101562 10.21875 -0.59375 C 9.238281 -0.0820312 8.148438 0.171875 6.953125 0.171875 Z M 6.953125 -3.078125 C 7.671875 -3.078125 8.28125 -3.335938 8.78125 -3.859375 C 9.289062 -4.390625 9.546875 -5.148438 9.546875 -6.140625 C 9.546875 -7.117188 9.300781 -7.875 8.8125 -8.40625 C 8.320312 -8.9375 7.71875 -9.203125 7 -9.203125 C 6.257812 -9.203125 5.644531 -8.941406 5.15625 -8.421875 C 4.675781 -7.898438 4.4375 -7.140625 4.4375 -6.140625 C 4.4375 -5.148438 4.675781 -4.390625 5.15625 -3.859375 C 5.632812 -3.335938 6.234375 -3.078125 6.953125 -3.078125 Z M 6.953125 -3.078125 "/></g></g></g><g fill="#2a74da" fill-opacity="1"><g transform="translate(142.195598, 249.306252)"><g><path d="M 0.609375 -6.140625 C 0.609375 -7.410156 0.867188 -8.519531 1.390625 -9.46875 C 1.910156 -10.425781 2.632812 -11.160156 3.5625 -11.671875 C 4.5 -12.191406 5.570312 -12.453125 6.78125 -12.453125 C 8.320312 -12.453125 9.609375 -12.046875 10.640625 -11.234375 C 11.671875 -10.429688 12.347656 -9.296875 12.671875 -7.828125 L 8.671875 -7.828125 C 8.328125 -8.765625 7.671875 -9.234375 6.703125 -9.234375 C 6.015625 -9.234375 5.460938 -8.96875 5.046875 -8.4375 C 4.640625 -7.90625 4.4375 -7.140625 4.4375 -6.140625 C 4.4375 -5.140625 4.640625 -4.367188 5.046875 -3.828125 C 5.460938 -3.296875 6.015625 -3.03125 6.703125 -3.03125 C 7.671875 -3.03125 8.328125 -3.5 8.671875 -4.4375 L 12.671875 -4.4375 C 12.347656 -3 11.664062 -1.867188 10.625 -1.046875 C 9.582031 -0.234375 8.300781 0.171875 6.78125 0.171875 C 5.570312 0.171875 4.5 -0.0820312 3.5625 -0.59375 C 2.632812 -1.101562 1.910156 -1.832031 1.390625 -2.78125 C 0.867188 -3.738281 0.609375 -4.859375 0.609375 -6.140625 Z M 0.609375 -6.140625 "/></g></g></g><g fill="#2a74da" fill-opacity="1"><g transform="translate(155.503222, 249.306252)"><g><path d="M 0.609375 -6.15625 C 0.609375 -7.414062 0.847656 -8.519531 1.328125 -9.46875 C 1.804688 -10.425781 2.457031 -11.160156 3.28125 -11.671875 C 4.101562 -12.191406 5.019531 -12.453125 6.03125 -12.453125 C 6.894531 -12.453125 7.648438 -12.273438 8.296875 -11.921875 C 8.953125 -11.566406 9.457031 -11.101562 9.8125 -10.53125 L 9.8125 -12.28125 L 13.578125 -12.28125 L 13.578125 0 L 9.8125 0 L 9.8125 -1.734375 C 9.445312 -1.160156 8.9375 -0.695312 8.28125 -0.34375 C 7.625 0 6.863281 0.171875 6 0.171875 C 5.007812 0.171875 4.101562 -0.0859375 3.28125 -0.609375 C 2.457031 -1.128906 1.804688 -1.867188 1.328125 -2.828125 C 0.847656 -3.785156 0.609375 -4.894531 0.609375 -6.15625 Z M 9.8125 -6.140625 C 9.8125 -7.078125 9.550781 -7.816406 9.03125 -8.359375 C 8.507812 -8.898438 7.875 -9.171875 7.125 -9.171875 C 6.375 -9.171875 5.738281 -8.898438 5.21875 -8.359375 C 4.695312 -7.828125 4.4375 -7.09375 4.4375 -6.15625 C 4.4375 -5.21875 4.695312 -4.472656 5.21875 -3.921875 C 5.738281 -3.378906 6.375 -3.109375 7.125 -3.109375 C 7.875 -3.109375 8.507812 -3.378906 9.03125 -3.921875 C 9.550781 -4.460938 9.8125 -5.203125 9.8125 -6.140625 Z M 9.8125 -6.140625 "/></g></g></g><g fill="#3ec48d" fill-opacity="1"><g transform="translate(170.449777, 249.306252)"><g><path d="M 6.953125 0.15625 C 5.828125 0.15625 4.816406 -0.0234375 3.921875 -0.390625 C 3.023438 -0.765625 2.304688 -1.3125 1.765625 -2.03125 C 1.234375 -2.75 0.953125 -3.613281 0.921875 -4.625 L 4.921875 -4.625 C 4.984375 -4.050781 5.179688 -3.613281 5.515625 -3.3125 C 5.859375 -3.007812 6.300781 -2.859375 6.84375 -2.859375 C 7.394531 -2.859375 7.832031 -2.984375 8.15625 -3.234375 C 8.476562 -3.492188 8.640625 -3.851562 8.640625 -4.3125 C 8.640625 -4.695312 8.507812 -5.007812 8.25 -5.25 C 8 -5.5 7.6875 -5.703125 7.3125 -5.859375 C 6.9375 -6.023438 6.40625 -6.210938 5.71875 -6.421875 C 4.71875 -6.734375 3.898438 -7.039062 3.265625 -7.34375 C 2.640625 -7.65625 2.097656 -8.109375 1.640625 -8.703125 C 1.191406 -9.304688 0.96875 -10.09375 0.96875 -11.0625 C 0.96875 -12.5 1.488281 -13.625 2.53125 -14.4375 C 3.570312 -15.25 4.925781 -15.65625 6.59375 -15.65625 C 8.300781 -15.65625 9.675781 -15.25 10.71875 -14.4375 C 11.757812 -13.625 12.316406 -12.492188 12.390625 -11.046875 L 8.3125 -11.046875 C 8.28125 -11.546875 8.097656 -11.9375 7.765625 -12.21875 C 7.429688 -12.507812 7 -12.65625 6.46875 -12.65625 C 6.007812 -12.65625 5.640625 -12.53125 5.359375 -12.28125 C 5.085938 -12.039062 4.953125 -11.691406 4.953125 -11.234375 C 4.953125 -10.742188 5.1875 -10.359375 5.65625 -10.078125 C 6.125 -9.796875 6.859375 -9.492188 7.859375 -9.171875 C 8.847656 -8.835938 9.65625 -8.515625 10.28125 -8.203125 C 10.90625 -7.898438 11.441406 -7.453125 11.890625 -6.859375 C 12.347656 -6.273438 12.578125 -5.519531 12.578125 -4.59375 C 12.578125 -3.71875 12.351562 -2.921875 11.90625 -2.203125 C 11.457031 -1.484375 10.804688 -0.910156 9.953125 -0.484375 C 9.109375 -0.0546875 8.109375 0.15625 6.953125 0.15625 Z M 6.953125 0.15625 "/></g></g></g><g fill="#3ec48d" fill-opacity="1"><g transform="translate(183.977368, 249.306252)"><g><path d="M 17.03125 -12.40625 C 18.550781 -12.40625 19.757812 -11.941406 20.65625 -11.015625 C 21.5625 -10.097656 22.015625 -8.816406 22.015625 -7.171875 L 22.015625 0 L 18.28125 0 L 18.28125 -6.671875 C 18.28125 -7.460938 18.070312 -8.070312 17.65625 -8.5 C 17.238281 -8.9375 16.660156 -9.15625 15.921875 -9.15625 C 15.191406 -9.15625 14.617188 -8.9375 14.203125 -8.5 C 13.785156 -8.070312 13.578125 -7.460938 13.578125 -6.671875 L 13.578125 0 L 9.828125 0 L 9.828125 -6.671875 C 9.828125 -7.460938 9.617188 -8.070312 9.203125 -8.5 C 8.785156 -8.9375 8.210938 -9.15625 7.484375 -9.15625 C 6.742188 -9.15625 6.164062 -8.9375 5.75 -8.5 C 5.332031 -8.070312 5.125 -7.460938 5.125 -6.671875 L 5.125 0 L 1.359375 0 L 1.359375 -12.28125 L 5.125 -12.28125 L 5.125 -10.734375 C 5.507812 -11.242188 6.007812 -11.648438 6.625 -11.953125 C 7.238281 -12.253906 7.9375 -12.40625 8.71875 -12.40625 C 9.632812 -12.40625 10.457031 -12.207031 11.1875 -11.8125 C 11.914062 -11.414062 12.484375 -10.851562 12.890625 -10.125 C 13.316406 -10.789062 13.894531 -11.335938 14.625 -11.765625 C 15.363281 -12.191406 16.164062 -12.40625 17.03125 -12.40625 Z M 17.03125 -12.40625 "/></g></g></g><g fill="#3ec48d" fill-opacity="1"><g transform="translate(207.27122, 249.306252)"><g><path d="M 0.609375 -6.15625 C 0.609375 -7.414062 0.847656 -8.519531 1.328125 -9.46875 C 1.804688 -10.425781 2.457031 -11.160156 3.28125 -11.671875 C 4.101562 -12.191406 5.019531 -12.453125 6.03125 -12.453125 C 6.894531 -12.453125 7.648438 -12.273438 8.296875 -11.921875 C 8.953125 -11.566406 9.457031 -11.101562 9.8125 -10.53125 L 9.8125 -12.28125 L 13.578125 -12.28125 L 13.578125 0 L 9.8125 0 L 9.8125 -1.734375 C 9.445312 -1.160156 8.9375 -0.695312 8.28125 -0.34375 C 7.625 0 6.863281 0.171875 6 0.171875 C 5.007812 0.171875 4.101562 -0.0859375 3.28125 -0.609375 C 2.457031 -1.128906 1.804688 -1.867188 1.328125 -2.828125 C 0.847656 -3.785156 0.609375 -4.894531 0.609375 -6.15625 Z M 9.8125 -6.140625 C 9.8125 -7.078125 9.550781 -7.816406 9.03125 -8.359375 C 8.507812 -8.898438 7.875 -9.171875 7.125 -9.171875 C 6.375 -9.171875 5.738281 -8.898438 5.21875 -8.359375 C 4.695312 -7.828125 4.4375 -7.09375 4.4375 -6.15625 C 4.4375 -5.21875 4.695312 -4.472656 5.21875 -3.921875 C 5.738281 -3.378906 6.375 -3.109375 7.125 -3.109375 C 7.875 -3.109375 8.507812 -3.378906 9.03125 -3.921875 C 9.550781 -4.460938 9.8125 -5.203125 9.8125 -6.140625 Z M 9.8125 -6.140625 "/></g></g></g><g fill="#3ec48d" fill-opacity="1"><g transform="translate(222.20656, 249.306252)"><g><path d="M 5.125 -10.234375 C 5.5625 -10.898438 6.109375 -11.425781 6.765625 -11.8125 C 7.429688 -12.207031 8.164062 -12.40625 8.96875 -12.40625 L 8.96875 -8.421875 L 7.9375 -8.421875 C 7 -8.421875 6.296875 -8.21875 5.828125 -7.8125 C 5.359375 -7.414062 5.125 -6.710938 5.125 -5.703125 L 5.125 0 L 1.359375 0 L 1.359375 -12.28125 L 5.125 -12.28125 Z M 5.125 -10.234375 "/></g></g></g><g fill="#3ec48d" fill-opacity="1"><g transform="translate(231.620881, 249.306252)"><g><path d="M 8.203125 -3.1875 L 8.203125 0 L 6.296875 0 C 4.929688 0 3.863281 -0.332031 3.09375 -1 C 2.332031 -1.664062 1.953125 -2.753906 1.953125 -4.265625 L 1.953125 -9.15625 L 0.46875 -9.15625 L 0.46875 -12.28125 L 1.953125 -12.28125 L 1.953125 -15.265625 L 5.71875 -15.265625 L 5.71875 -12.28125 L 8.1875 -12.28125 L 8.1875 -9.15625 L 5.71875 -9.15625 L 5.71875 -4.21875 C 5.71875 -3.851562 5.804688 -3.585938 5.984375 -3.421875 C 6.160156 -3.265625 6.453125 -3.1875 6.859375 -3.1875 Z M 8.203125 -3.1875 "/></g></g></g><g clip-path="url(#79fc0d6927)"><path fill="#2a74da" d="M 158.105469 82.558594 C 156.566406 83.734375 154.363281 83.4375 153.1875 81.898438 C 152.011719 80.359375 152.304688 78.160156 153.847656 76.984375 C 157.410156 74.25 161.433594 72.074219 165.78125 70.597656 C 169.984375 69.175781 174.480469 68.398438 179.140625 68.398438 C 190.625 68.398438 201.023438 73.054688 208.550781 80.582031 C 216.078125 88.109375 220.734375 98.507812 220.734375 109.992188 C 220.734375 118.84375 217.953125 127.066406 213.214844 133.824219 C 208.824219 140.097656 202.742188 145.097656 195.644531 148.171875 L 195.644531 206.867188 C 195.644531 207.855469 195.234375 208.746094 194.582031 209.386719 L 186.617188 217.351562 C 185.933594 218.039062 185.03125 218.378906 184.128906 218.378906 L 153.367188 218.378906 C 151.429688 218.378906 149.851562 216.804688 149.851562 214.863281 L 149.851562 201.96875 C 149.851562 200.804688 150.414062 199.777344 151.28125 199.136719 L 162.636719 189.304688 L 162.636719 181.8125 L 151.089844 171.921875 C 149.617188 170.664062 149.441406 168.449219 150.703125 166.976562 C 150.832031 166.828125 150.972656 166.6875 151.125 166.558594 L 162.640625 156.703125 L 162.640625 148.160156 C 155.542969 145.085938 149.460938 140.085938 145.066406 133.8125 C 140.332031 127.050781 137.550781 118.828125 137.550781 109.980469 C 137.550781 108.039062 139.125 106.464844 141.066406 106.464844 C 143.003906 106.464844 144.582031 108.039062 144.582031 109.980469 C 144.582031 117.363281 146.882812 124.203125 150.808594 129.800781 C 154.800781 135.5 160.476562 139.9375 167.113281 142.402344 C 168.59375 142.820312 169.671875 144.175781 169.671875 145.78125 L 169.671875 158.304688 L 169.664062 158.304688 C 169.664062 159.292969 169.246094 160.277344 168.4375 160.972656 L 158.757812 169.253906 L 168.238281 177.367188 C 169.109375 178.007812 169.667969 179.035156 169.667969 180.199219 L 169.667969 190.890625 L 169.660156 190.890625 C 169.660156 191.867188 169.25 192.847656 168.449219 193.535156 L 156.882812 203.554688 L 156.882812 211.339844 L 182.675781 211.339844 L 188.617188 205.398438 L 188.617188 145.78125 L 188.625 145.78125 C 188.625 144.347656 189.511719 143.007812 190.9375 142.488281 C 197.679688 140.042969 203.441406 135.566406 207.480469 129.800781 C 211.40625 124.199219 213.707031 117.363281 213.707031 109.980469 C 213.707031 100.433594 209.839844 91.792969 203.582031 85.535156 C 197.328125 79.28125 188.691406 75.410156 179.140625 75.410156 C 175.238281 75.410156 171.507812 76.050781 168.03125 77.226562 C 164.421875 78.453125 161.070312 80.257812 158.105469 82.539062 Z M 199.746094 109.996094 C 199.746094 115.6875 197.441406 120.839844 193.710938 124.570312 C 189.984375 128.296875 184.828125 130.605469 179.140625 130.605469 C 173.449219 130.605469 168.300781 128.296875 164.566406 124.570312 C 160.839844 120.84375 158.535156 115.6875 158.535156 109.996094 C 158.535156 104.308594 160.839844 99.15625 164.566406 95.425781 C 168.300781 91.699219 173.449219 89.390625 179.140625 89.390625 C 184.828125 89.390625 189.980469 91.699219 193.710938 95.425781 C 197.441406 99.15625 199.746094 104.308594 199.746094 109.996094 Z M 188.738281 119.597656 C 191.195312 117.140625 192.714844 113.746094 192.714844 109.996094 C 192.714844 106.246094 191.195312 102.851562 188.738281 100.398438 C 186.28125 97.9375 182.890625 96.421875 179.140625 96.421875 C 175.390625 96.421875 171.992188 97.941406 169.539062 100.398438 C 167.082031 102.851562 165.566406 106.246094 165.566406 109.996094 C 165.566406 113.746094 167.085938 117.144531 169.539062 119.597656 C 171.992188 122.050781 175.390625 123.574219 179.140625 123.574219 C 182.890625 123.574219 186.285156 122.050781 188.738281 119.597656 Z M 188.738281 119.597656 " fill-opacity="1" fill-rule="nonzero"/></g></svg>